<svg xmlns="http://www.w3.org/2000/svg" viewBox="0 0 163.03 38.94"><defs><style>.cls-1{fill:#0057ff;}</style></defs><title>flance logo kleur</title><g id="Layer_2" data-name="Layer 2"><g id="Layer_1-2" data-name="Layer 1"><rect class="cls-1" x="52.82" y="0.6" width="7.49" height="19.57"/><rect x="52.82" y="20.17" width="7.49" height="18.17"/><path d="M43.28,10.23v3.85h5.55v6H43.28V38.34H35.8V20.07H30.85v-6H35.8V9.78A19,19,0,0,1,36.15,6a7.69,7.69,0,0,1,1.34-3.12A6.77,6.77,0,0,1,40.36.77,13.21,13.21,0,0,1,45.28,0c.77,0,1.52,0,2.25.1a14.93,14.93,0,0,1,2.14.35l-.34,6.34a10.11,10.11,0,0,0-1.2-.38,6,6,0,0,0-1.25-.12,4.08,4.08,0,0,0-2.7.77C43.58,7.58,43.28,8.64,43.28,10.23Z"/><path d="M79.87,35.29h-.1a7.06,7.06,0,0,1-3.32,2.8,11.48,11.48,0,0,1-4.36.85,11.06,11.06,0,0,1-3.27-.48A8.08,8.08,0,0,1,66.05,37a6.71,6.71,0,0,1-1.9-2.35,7.09,7.09,0,0,1-.7-3.24,7.54,7.54,0,0,1,.77-3.55,7,7,0,0,1,2.1-2.39,10.47,10.47,0,0,1,3-1.47,22.23,22.23,0,0,1,3.52-.78c1.21-.16,2.43-.26,3.64-.3s2.34-.05,3.37-.05a3.9,3.9,0,0,0-1.42-3.17,5.14,5.14,0,0,0-3.37-1.17,7.42,7.42,0,0,0-3.37.77A9.5,9.5,0,0,0,69,21.46l-4-4.09a13.77,13.77,0,0,1,4.89-2.92,17.42,17.42,0,0,1,5.79-1,15.16,15.16,0,0,1,5.42.82,7.94,7.94,0,0,1,3.39,2.42,9.3,9.3,0,0,1,1.77,3.92,25.29,25.29,0,0,1,.5,5.37V38.34H79.87ZM78,27.7c-.57,0-1.28,0-2.13.08a10.93,10.93,0,0,0-2.44.42,5.69,5.69,0,0,0-2,1.05,2.42,2.42,0,0,0-.82,1.95,2.15,2.15,0,0,0,1.15,2,4.8,4.8,0,0,0,2.39.65,7.49,7.49,0,0,0,2.12-.3,6.55,6.55,0,0,0,1.83-.85,4.16,4.16,0,0,0,1.27-1.4,4,4,0,0,0,.47-2V27.7Z"/><path d="M91.27,14.26h7.19v3.3h.1a6,6,0,0,1,1-1.4,7.78,7.78,0,0,1,1.55-1.25,9.4,9.4,0,0,1,2.05-.9,8.61,8.61,0,0,1,2.49-.35,10.38,10.38,0,0,1,4.6.88A6.67,6.67,0,0,1,113,17a9.74,9.74,0,0,1,1.32,3.64,28.12,28.12,0,0,1,.35,4.55V38.53h-7.49V26.64c0-.69,0-1.42-.07-2.17a6.81,6.81,0,0,0-.45-2.07,3.22,3.22,0,0,0-3.37-2.15,4.62,4.62,0,0,0-2.35.53,3.48,3.48,0,0,0-1.37,1.4,5.42,5.42,0,0,0-.62,2,15.46,15.46,0,0,0-.15,2.29V38.53H91.27Z"/><path d="M130.15,20.18V13.53a15,15,0,0,0-4,.85A12.62,12.62,0,0,0,121.89,17,11.91,11.91,0,0,0,119,21a12.67,12.67,0,0,0-1,5.24,12.71,12.71,0,0,0,1,5.24,12.11,12.11,0,0,0,2.87,4A12.78,12.78,0,0,0,126.18,38a15,15,0,0,0,4,.85V32.24A5.22,5.22,0,0,1,127,30.65a6.26,6.26,0,0,1-1.57-4.44A6.3,6.3,0,0,1,127,21.76,5.15,5.15,0,0,1,130.15,20.18Z"/><path d="M161.88,34.14a11.82,11.82,0,0,1-4.55,3.55,13.61,13.61,0,0,1-5.69,1.25,15.22,15.22,0,0,1-5.26-.9,12.83,12.83,0,0,1-4.3-2.57,12.25,12.25,0,0,1-2.87-4,12.87,12.87,0,0,1-1-5.24,12.83,12.83,0,0,1,1-5.24,12,12,0,0,1,2.87-4,12.66,12.66,0,0,1,4.3-2.57,15.22,15.22,0,0,1,5.26-.9,12,12,0,0,1,4.72.9A9.82,9.82,0,0,1,160,17a11.76,11.76,0,0,1,2.27,4,16.24,16.24,0,0,1,.8,5.24v2.34H145.65A5.93,5.93,0,0,0,147.6,32a5.51,5.51,0,0,0,3.69,1.28,5.58,5.58,0,0,0,3.12-.83,8.45,8.45,0,0,0,2.23-2.12Zm-6.34-10.68a4.37,4.37,0,0,0-1.25-3.24A4.44,4.44,0,0,0,151,18.87a5.54,5.54,0,0,0-2.2.4,5.73,5.73,0,0,0-1.62,1,4.53,4.53,0,0,0-1,1.45,4.89,4.89,0,0,0-.43,1.72Z"/><rect class="cls-1" x="130.15" y="32.24" width="6.02" height="6.65"/><rect class="cls-1" x="130.15" y="13.53" width="6.02" height="6.65"/><rect y="21.17" width="29.9" height="17.17"/><rect class="cls-1" y="21.17" width="21.23" height="17.17"/><rect x="10.93" y="17.01" width="9.34" height="1.76"/><rect class="cls-1" x="19.01" y="17.01" width="1.26" height="4.16"/><rect x="10.93" y="17.01" width="1.26" height="4.16"/><rect x="17.75" y="17.01" width="1.26" height="4.16"/><rect class="cls-1" x="12.19" y="18.77" width="1.26" height="2.4"/></g></g></svg>